<svg xmlns="http://www.w3.org/2000/svg" fill="none" viewBox="0 0 180 120">
  <g>
    <path fill="#fdd817"
      d="M0 10 v40 h10 v-10 h20 v10 h10 v20 h-10 v10 h-20 v-10 h-10 v40 h10 v-10 h10 v-10 h10 v-10 h10 v-10 h10 v-20 h-10 v-10 h-10 v-10 h-10 v-10 v-10 z" />
    <rect fill="#fdd817" x="10" y="50" width="20" height="20" />
    <path fill="#66338b" d="M10 40 h20 v10 h-20 z" />
    <path fill="#66338b" d="M30 50 h10 v20 h-10 z" />
    <path fill="#66338b" d="M10 70 h20 v10 h-20 z" />
    <path fill="#66338b" d="M0 50 h10 v20 h-10 z" />
    <path fill="#fff"
      d="M0 0 h10 v10 h10 v10 h10 v10 h10 v10 h10 v10 h10 v20 h-10 v10 h-10 v10 h-10 v10 h-10 v10 h-10 v10 h-10 v-10 h10 v-10 h10 v-10 h10 v-10 h10 v-10 h10 v-20 h-10 v-10 h-10 v-10 h-10 v-10 h-10 v-10 h-10 z" />
    <path fill="#f4aec8"
      d="M10 0 h10 v10 h10 v10 h10 v10 h10 v10 h10 v10 h10 v20 h-10 v10 h-10 v10 h-10 v10 h-10 v10 h-10 v10 h-10 v-10 h10 v-10 h10 v-10 h10 v-10 h10 v-10 h10 v-20 h-10 v-10 h-10 v-10 h-10 v-10 h-10 v-10 h-10 z" />
    <path fill="#7bcce5"
      d="M20 0 h10 v10 h10 v10 h10 v10 h10 v10 h10 v10 h10 v20 h-10 v10 h-10 v10 h-10 v10 h-10 v10 h-10 v10 h-10 v-10 h10 v-10 h10 v-10 h10 v-10 h10 v-10 h10 v-20 h-10 v-10 h-10 v-10 h-10 v-10 h-10 v-10 h-10 z" />
    <path fill="#945516"
      d="M30 0 h10 v10 h10 v10 h10 v10 h10 v10 h10 v10 h10 v20 h-10 v10 h-10 v10 h-10 v10 h-10 v10 h-10 v10 h-10 v-10 h10 v-10 h10 v-10 h10 v-10 h10 v-10 h10 v-20 h-10 v-10 h-10 v-10 h-10 v-10 h-10 v-10 h-10 z" />
    <path fill="#000"
      d="M40 0 h10 v10 h10 v10 h10 v10 h10 v10 h10 v10 h10 v20 h-10 v10 h-10 v10 h-10 v10 h-10 v10 h-10 v10 h-10 v-10 h10 v-10 h10 v-10 h10 v-10 h10 v-10 h10 v-20 h-10 v-10 h-10 v-10 h-10 v-10 h-10 v-10 h-10 z" />
    <path fill="#e22016" d="M50 0 v10 h10 v10 h120 v-20 z" />
    <path fill="#f28917" d="M70 20 v10 h10 v10 h100 v-20 z" />
    <path fill="#efe524" d="M90 40 v10 h10 v10 h80 v-20 z" />
    <path fill="#78b82a" d="M100 60 v10 h-10 v10 h90 v-20 z" />
    <path fill="#2c58a4" d="M80 80 v10 h-10 v10 h110 v-20 z" />
    <path fill="#6d2380" d="M60 100 v10 h-10 v10 h130 v-20 z" />
  </g>
</svg>